<?xml version="1.0" standalone="no"?><!DOCTYPE svg PUBLIC "-//W3C//DTD SVG 1.1//EN" "http://www.w3.org/Graphics/SVG/1.1/DTD/svg11.dtd"><svg t="1639926898327" class="icon" viewBox="0 0 1412 1024" version="1.1" xmlns="http://www.w3.org/2000/svg" p-id="5108" xmlns:xlink="http://www.w3.org/1999/xlink" width="66.1875" height="48"><defs><style type="text/css"></style></defs><path d="M7.585185 72.059259V956.681481c0 36.02963 28.444444 64.474074 64.474074 64.474075h1273.362963c36.02963 0 64.474074-29.392593 64.474074-64.474075V75.851852c0-37.925926-30.340741-68.266667-68.266666-68.266667H71.111111L7.585185 72.059259z" fill="#6097FD" p-id="5109"></path><path d="M992.711111 170.666667H6.637037V72.059259C6.637037 36.02963 35.081481 7.585185 71.111111 7.585185h1273.362963c36.02963 0 64.474074 28.444444 64.474074 64.474074V170.666667h-416.237037z" fill="#4988FD" p-id="5110"></path><path d="M108.088889 90.074074m-27.496296 0a27.496296 27.496296 0 1 0 54.992592 0 27.496296 27.496296 0 1 0-54.992592 0Z" fill="#FFFFFF" p-id="5111"></path><path d="M190.577778 90.074074m-27.496297 0a27.496296 27.496296 0 1 0 54.992593 0 27.496296 27.496296 0 1 0-54.992593 0Z" fill="#DFECFD" p-id="5112"></path><path d="M273.066667 90.074074m-27.496297 0a27.496296 27.496296 0 1 0 54.992593 0 27.496296 27.496296 0 1 0-54.992593 0Z" fill="#C4D9F2" p-id="5113"></path><path d="M649.481481 520.533333l-250.311111-1.896296c-10.42963 0-18.962963-8.533333-18.962963-18.962963s8.533333-18.962963 18.962963-18.962963l250.311111 1.896296c10.42963 0 18.962963 8.533333 18.962963 18.962963s-8.533333 18.962963-18.962963 18.962963zM1244.918519 520.533333l-289.185186-1.896296c-10.42963 0-18.962963-8.533333-18.962963-18.962963s8.533333-18.962963 18.962963-18.962963l289.185186 1.896296c10.42963 0 18.962963 8.533333 18.962962 18.962963s-8.533333 18.962963-18.962962 18.962963z" fill="#C4D9F2" p-id="5114"></path><path d="M1052.444444 883.674074L763.259259 881.777778c-10.42963 0-18.962963-8.533333-18.962963-18.962963s8.533333-18.962963 18.962963-18.962963l289.185185 1.896296c10.42963 0 18.962963 8.533333 18.962963 18.962963s-8.533333 18.962963-18.962963 18.962963zM874.192593 520.533333l-140.325926-1.896296c-10.42963 0-18.962963-8.533333-18.962963-18.962963s8.533333-18.962963 18.962963-18.962963l140.325926 1.896296c10.42963 0 18.962963 8.533333 18.962963 18.962963s-8.533333 18.962963-18.962963 18.962963z" fill="#3973F4" p-id="5115"></path><path d="M297.718519 518.637037l-103.348149-0.948148c-10.42963 0-18.962963-8.533333-18.962963-18.962963s8.533333-18.962963 18.962963-18.962963l103.348149 0.948148c10.42963 0 18.962963 8.533333 18.962962 18.962963s-8.533333 18.962963-18.962962 18.962963z" fill="#C4D9F2" p-id="5116"></path><path d="M698.785185 640.948148l-150.755555-1.896296c-10.42963 0-18.962963-8.533333-18.962963-18.962963s8.533333-18.962963 18.962963-18.962963l150.755555 1.896296c10.42963 0 18.962963 8.533333 18.962963 18.962963 0 11.377778-8.533333 18.962963-18.962963 18.962963z" fill="#3973F4" p-id="5117"></path><path d="M1166.222222 643.792593l-384-4.740741c-10.42963 0-18.962963-8.533333-18.962963-18.962963s8.533333-18.962963 18.962963-18.962963l384 4.740741c10.42963 0 18.962963 8.533333 18.962963 18.962963s-8.533333 18.962963-18.962963 18.962963zM447.525926 639.051852l-252.207407-0.948148c-10.42963 0-18.962963-8.533333-18.962963-18.962963s8.533333-18.962963 18.962963-18.962963l252.207407 0.948148c10.42963 0 18.962963 8.533333 18.962963 18.962963s-8.533333 18.962963-18.962963 18.962963z" fill="#C4D9F2" p-id="5118"></path><path d="M897.896296 762.311111l-349.866666-1.896296c-10.42963 0-18.962963-8.533333-18.962963-18.962963s8.533333-18.962963 18.962963-18.962963l349.866666 1.896296c10.42963 0 18.962963 8.533333 18.962963 18.962963s-8.533333 18.962963-18.962963 18.962963z" fill="#3973F4" p-id="5119"></path><path d="M447.525926 759.466667L195.318519 758.518519c-10.42963 0-18.962963-8.533333-18.962963-18.962963s8.533333-18.962963 18.962963-18.962963l252.207407 0.948148c10.42963 0 18.962963 8.533333 18.962963 18.962963 0 11.377778-8.533333 18.962963-18.962963 18.962963zM665.6 881.777778l-192.474074-0.948148c-10.42963 0-18.962963-8.533333-18.962963-18.962963s8.533333-18.962963 18.962963-18.962963l192.474074 0.948148c10.42963 0 18.962963 8.533333 18.962963 18.962963s-8.533333 18.962963-18.962963 18.962963z" fill="#C4D9F2" p-id="5120"></path><path d="M350.814815 880.82963H195.318519c-10.42963 0-18.962963-8.533333-18.962963-18.962963s8.533333-18.962963 18.962963-18.962963H350.814815c10.42963 0 18.962963 8.533333 18.962963 18.962963s-8.533333 18.962963-18.962963 18.962963z" fill="#3973F4" p-id="5121"></path><path d="M903.585185 334.696296L194.37037 331.851852c-10.42963 0-18.962963-8.533333-18.962963-18.962963s8.533333-18.962963 18.962963-18.962963l709.214815 2.844444c10.42963 0 18.962963 8.533333 18.962963 18.962963s-8.533333 18.962963-18.962963 18.962963z" fill="#C4D9F2" p-id="5122"></path></svg>