<?xml version="1.0" standalone="no"?><!DOCTYPE svg PUBLIC "-//W3C//DTD SVG 1.1//EN" "http://www.w3.org/Graphics/SVG/1.1/DTD/svg11.dtd"><svg t="1639928547085" class="icon" viewBox="0 0 1024 1024" version="1.1" xmlns="http://www.w3.org/2000/svg" p-id="3000" xmlns:xlink="http://www.w3.org/1999/xlink" width="48" height="48"><defs><style type="text/css"></style></defs><path d="M787.392 816.426667H85.610667V277.973333a170.666667 170.666667 0 0 1 170.666666-170.666666H787.413333v709.12z" fill="#5AA72D" p-id="3001"></path><path d="M533.930667 960.341333s-120.128-245.909333 131.712-348.757333c93.845333-31.68 242.453333-112.128 314.645333-196.650667 0 0-27.52 91.904-52.544 220.928s-36.885333 343.637333-393.813333 324.48z" fill="#E3E3E3" p-id="3002"></path><path d="M540.394667 951.424c76.394667-65.152 413.546667-491.818667 413.546666-491.818667s-263.466667 389.632-385.962666 491.818667h-27.584z" fill="#959595" p-id="3003"></path><path d="M449.6 685.696c-45.717333 0-92.906667-17.024-113.258667-72.96-42.410667 0.298667-77.269333-16.021333-104.618666-48.938667-27.328-32.917333-41.002667-74.325333-41.002667-124.224 0-55.658667 13.845333-99.776 41.514667-132.416s65.514667-48.938667 113.514666-48.938666c43.221333 0 78.293333 16.021333 105.216 48.042666 26.922667 32.021333 40.384 73.728 40.384 125.098667 0 45.610667-9.472 83.925333-28.437333 114.922667-16.085333 26.325333-45.546667 47.722667-73.130667 58.176 0 0 0 36.053333 60.010667 36.053333l-0.192 45.184zM268.842667 436.053333c0 44.074667 6.570667 79.424 19.733333 106.005334 13.141333 26.581333 30.314667 39.893333 51.477333 39.893333 22.72 0 40.576-12.736 53.546667-38.229333 12.970667-25.493333 19.456-61.141333 19.456-106.944 0-47.061333-6.336-83.370667-19.029333-108.949334-12.693333-25.578667-30.08-38.357333-52.16-38.357333-21.717333 0-39.317333 13.482667-52.778667 40.469333s-20.245333 62.357333-20.245333 106.112zM661.333333 604.672c-21.333333 5.12-23.744 5.034667-39.701333 5.034667-43.52 0-66.965333-24.106667-66.965333-72.32V405.333333h-42.666667v-42.666666h42.666667v-12.906667l12.821333-60.608 29.845333 0.085333V362.666667h64v42.666666h-64v124.352c0 15.978667 1.984 28.096 8.170667 34.282667 15.082667 15.082667 44.928 6.144 55.829333 2.026667v38.677333z" fill="#FFFFFF" p-id="3004"></path></svg>