<?xml version="1.0" standalone="no"?><!DOCTYPE svg PUBLIC "-//W3C//DTD SVG 1.1//EN" "http://www.w3.org/Graphics/SVG/1.1/DTD/svg11.dtd"><svg t="1639927864582" class="icon" viewBox="0 0 1024 1024" version="1.1" xmlns="http://www.w3.org/2000/svg" p-id="2554" xmlns:xlink="http://www.w3.org/1999/xlink" width="48" height="48"><defs><style type="text/css"></style></defs><path d="M512 512m-512 0a512 512 0 1 0 1024 0 512 512 0 1 0-1024 0Z" fill="#DD4814" p-id="2555"></path><path d="M251.716267 512c0 36.932267-29.5936 66.833067-66.116267 66.833067S119.466667 548.9152 119.466667 512c0-36.9152 29.610667-66.833067 66.133333-66.833067 36.5056 0 66.116267 29.917867 66.116267 66.833067zM627.882667 836.983467a65.7408 65.7408 0 0 0 90.333866 24.439466c31.573333-18.432 42.4448-59.306667 24.1664-91.2896a65.706667 65.706667 0 0 0-90.282666-24.439466c-31.624533 18.466133-42.461867 59.323733-24.2176 91.2896z m114.517333-583.133867c18.261333-31.9488 7.441067-72.823467-24.183467-91.2896a65.757867 65.757867 0 0 0-90.333866 24.456533c-18.261333 31.965867-7.406933 72.8576 24.200533 91.306667a65.6896 65.6896 0 0 0 90.299733-24.4736z m-223.7952 67.549867c98.542933 0 179.370667 76.356267 187.835733 173.704533L802.133333 493.602133a287.607467 287.607467 0 0 0-83.4048-185.429333c-25.361067 9.898667-54.7328 8.533333-80.0768-6.263467a93.917867 93.917867 0 0 1-45.431466-67.037866 281.770667 281.770667 0 0 0-74.581334-10.001067c-45.226667 0-88.0128 10.683733-126.0032 29.730133l46.557867 84.514134a186.026667 186.026667 0 0 1 79.428267-17.7152zM330.069333 512c0-64.494933 31.6928-121.480533 80.1792-155.989333l-49.134933-82.9952a287.505067 287.505067 0 0 0-117.1968 165.717333A94.242133 94.242133 0 0 1 278.6304 512a94.242133 94.242133 0 0 1-34.7136 73.2672 287.573333 287.573333 0 0 0 117.1968 165.717333l49.134933-82.9952A190.976 190.976 0 0 1 330.069333 512zM518.621867 702.634667a186.368 186.368 0 0 1-79.428267-17.698134l-46.557867 84.514134a280.405333 280.405333 0 0 0 125.986134 29.713066 281.258667 281.258667 0 0 0 74.5984-10.001066 93.9008 93.9008 0 0 1 45.431466-67.037867 91.989333 91.989333 0 0 1 80.0768-6.263467A287.744 287.744 0 0 0 802.133333 530.414933l-95.675733-1.536c-8.448 97.3824-89.2928 173.738667-187.835733 173.738667z" fill="#FFFFFF" p-id="2556"></path></svg>