<?xml version="1.0" standalone="no"?><!DOCTYPE svg PUBLIC "-//W3C//DTD SVG 1.1//EN" "http://www.w3.org/Graphics/SVG/1.1/DTD/svg11.dtd"><svg t="1639840584735" class="icon" viewBox="0 0 1024 1024" version="1.1" xmlns="http://www.w3.org/2000/svg" p-id="880" width="48" height="48" xmlns:xlink="http://www.w3.org/1999/xlink"><defs><style type="text/css"></style></defs><path d="M511.3 774.2c-5.1 0-10-2.4-13.1-6.8l-154.6-219-154.6 219c-4 5.7-11.3 8.1-17.9 6-6.6-2.1-11.2-8.3-11.2-15.2V283.1c0-7 4.5-13.1 11.2-15.2 6.6-2.1 13.9 0.3 17.9 6l154.6 219 154.6-219c4-5.7 11.3-8.1 17.9-6 6.6 2.1 11.2 8.3 11.2 15.2v475.1c0 7-4.5 13.1-11.2 15.2-1.5 0.5-3.2 0.8-4.8 0.8zM363.2 520.7l132.1 187.1V333.5L363.2 520.7zM192 333.5v374.3l132.1-187.1L192 333.5z" fill="#00365B" p-id="881"></path><path d="M511.3 774.2c-3.1 0-6.3-0.9-9.1-2.8-7.3-5-9.1-15-4.1-22.3l157.7-228.4-157.6-228.5c-5-7.3-3.2-17.2 4.1-22.3 7.3-5 17.2-3.2 22.3 4.1l150.8 218.5L826.2 274c4-5.8 11.2-8.3 17.9-6.2 6.7 2.1 11.2 8.3 11.2 15.3v475.1c0 7-4.6 13.2-11.2 15.3-6.7 2.1-13.9-0.4-17.9-6.2L675.3 548.8 524.5 767.3c-3.1 4.5-8.1 6.9-13.2 6.9z m183.5-253.5l128.6 186.2V334.5L694.8 520.7z" fill="#00365B" p-id="882"></path><path d="M176 283.1m-120 0a120 120 0 1 0 240 0 120 120 0 1 0-240 0Z" fill="#5285D6" p-id="883"></path><path d="M176 419.1c-75 0-136-61-136-136s61-136 136-136 136 61 136 136-61.1 136-136 136z m0-240c-57.3 0-104 46.7-104 104s46.7 104 104 104 104-46.7 104-104-46.7-104-104-104z" fill="#00365B" p-id="884"></path><path d="M511.3 283.1m-120 0a120 120 0 1 0 240 0 120 120 0 1 0-240 0Z" fill="#DDEAFC" p-id="885"></path><path d="M511.3 419.1c-75 0-136-61-136-136s61-136 136-136 136 61 136 136-61 136-136 136z m0-240c-57.3 0-104 46.7-104 104s46.7 104 104 104 104-46.7 104-104-46.6-104-104-104z" fill="#00365B" p-id="886"></path><path d="M839.3 283.1m-120 0a120 120 0 1 0 240 0 120 120 0 1 0-240 0Z" fill="#5285D6" p-id="887"></path><path d="M839.3 419.1c-75 0-136-61-136-136s61-136 136-136 136 61 136 136-61 136-136 136z m0-240c-57.3 0-104 46.7-104 104s46.7 104 104 104 104-46.7 104-104-46.6-104-104-104z" fill="#00365B" p-id="888"></path><path d="M176 758.2m-120 0a120 120 0 1 0 240 0 120 120 0 1 0-240 0Z" fill="#DDEAFC" p-id="889"></path><path d="M176 894.2c-75 0-136-61-136-136s61-136 136-136 136 61 136 136-61.1 136-136 136z m0-240c-57.3 0-104 46.7-104 104s46.7 104 104 104 104-46.7 104-104-46.7-104-104-104z" fill="#00365B" p-id="890"></path><path d="M511.3 758.2m-120 0a120 120 0 1 0 240 0 120 120 0 1 0-240 0Z" fill="#5285D6" p-id="891"></path><path d="M511.3 894.2c-75 0-136-61-136-136s61-136 136-136 136 61 136 136-61 136-136 136z m0-240c-57.3 0-104 46.7-104 104s46.7 104 104 104 104-46.7 104-104-46.6-104-104-104z" fill="#00365B" p-id="892"></path><path d="M839.3 758.2m-120 0a120 120 0 1 0 240 0 120 120 0 1 0-240 0Z" fill="#DDEAFC" p-id="893"></path><path d="M839.3 894.2c-75 0-136-61-136-136s61-136 136-136 136 61 136 136-61 136-136 136z m0-240c-57.3 0-104 46.7-104 104s46.7 104 104 104 104-46.7 104-104-46.6-104-104-104z" fill="#00365B" p-id="894"></path></svg>