<?xml version="1.0" standalone="no"?><!DOCTYPE svg PUBLIC "-//W3C//DTD SVG 1.1//EN" "http://www.w3.org/Graphics/SVG/1.1/DTD/svg11.dtd"><svg t="1632480171223" class="icon" viewBox="0 0 1024 1024" version="1.1" xmlns="http://www.w3.org/2000/svg" p-id="9931" xmlns:xlink="http://www.w3.org/1999/xlink" width="48" height="48"><defs><style type="text/css"></style></defs><path d="M208.927 595.425c2.887 21.033 5.847 42.21 8.734 64.051 17.92-13.404 35.031-26.654 52.358-39.69-2.294-2.97-49.839-21.842-61.092-24.371z m412.62 0c2.888 21.033 5.848 42.21 8.735 64.051 17.92-13.404 35.021-26.654 52.357-39.69-2.293-2.97-49.838-21.842-61.091-24.371z" fill="#1296DB" p-id="9932"></path><path d="M512.174 0.338C229.581 0.338 0.543 229.386 0.543 511.969S229.59 1023.59 512.174 1023.59s511.621-229.038 511.621-511.62S794.757 0.337 512.175 0.337z m-29.03 444.395H500.1c2.888 0 4.3 0.963 4.3 4.434v53.392c-6.819-0.369-13.854-0.584-21.186-0.963v-56.863h-0.071z m-115.815-6.369c1.925 0 2.888 1.178 3.328 3.482 1.782 17.92 3.328 35.39 5.264 53.903-6.82 0.82-13.261 0.963-20.44 1.557-2.518-19.62-4.894-38.728-7.413-58.573 6.666-0.369 13.035-0.369 19.251-0.369z m-27.627 3.103c2.744-0.369 1.925 1.925 2.375 3.481 0.594 6.595 1.332 12.81 1.926 19.252 0.962 10.148 2.365 19.855 3.328 30.003v3.922l-15.77 2.734c-3.482-18.883-6.82-37.54-10.291-56.801 6.215-0.666 12.216-2.069 18.432-2.591z m-2.888 183.87c-2.519 8.376-8.366 14.96-15.544 20.438-16.958 13.415-34.437 25.109-54.887 31.918a264.704 264.704 0 0 1-43.98 10.742c-19.477 2.888-39.322 4.301-59.167 6.216-4.065 0.594-7.987 0-12.288 0-1.925 0-2.52-0.963-2.52-2.888-0.224-8.735-0.962-17.92-1.556-27.033-0.962-11.694-2.15-23.174-3.481-34.796-1.925-16.363-3.922-32.143-5.847-48.435-1.925-17.1-4.301-34.058-6.226-51.016-1.925-16.742-3.482-33.25-5.837-49.838-2.744-18.882-5.263-37.55-8.151-56.801a509.921 509.921 0 0 0-13.036-66.355c-0.368-0.953 0.594-2.878 1.188-3.482a2986.764 2986.764 0 0 0 57.61-22.804c6.216-2.735 6.81-3.697 6.81 4.444 0 34.437 0 68.72 0.594 103.157 0.369 17.92 0.963 35.84 2.365 53.689 1.557 21.401 3.933 43.172 5.858 65.024 0 0.952 0.594 1.771 0.594 2.355 7.403-0.358 14.581-0.952 21.77-0.952 30.577-0.82 60.498 3.328 89.16 14.581 13.987 5.632 27.617 12.084 39.69 21.187 9.994 7.547 12.288 16.876 6.881 30.648z m25.846 44.584c-10.066-50.432-19.845-100.045-29.543-150.835 8.141-0.973 15.995-2.376 23.767-3.338 5.632-0.82 11.47-0.82 16.958-1.331 3.113-0.38 5.038 0.952 5.478 3.922 1.188 7.782 2.52 15.544 3.482 23.767 1.782 13.26 2.888 26.665 4.3 39.915 1.332 11.704 2.51 23.173 3.923 34.806 1.33 12.288 2.887 24.73 4.444 37.54 0.368 3.481 0.962 7.403 1.331 11.264-11.336 1.403-22.436 2.734-34.14 4.29z m83.159-14.592c-10.138-0.962-19.845-1.556-30.577-2.519-9.185-92.416-16.967-185.651-34.437-278.733 5.632-0.583 11.469-1.33 17.326-1.914 6.81-0.38 13.404-0.82 20.214-1.332 5.632-0.379 7.782 0.953 8.151 6.431l2.888 43.991c1.33 19.845 2.887 39.69 4.3 59.535 0.953 14.367 1.547 28.59 2.878 43.029 1.331 15.77 2.888 31.324 4.3 46.879 1.332 11.253 2.366 23.173 3.329 34.427 1.33 12.288 2.744 24.74 3.481 37.55l0.963 10.731c0.072 1.925-0.891 2.294-2.816 1.925z m26.808-210.75c2.52 0 3.482 0.595 3.482 3.482-0.369 7.783 0 15.995 0 23.767v29.553c-5.847 0.594-11.11 0.963-16.364 1.331-1.556-18.882-2.887-37.918-4.444-58.204h17.326v0.072z m2.97 228.67c-0.973 0-2.53-1.556-2.53-2.519-1.546-16.957-2.887-33.833-4.433-50.79-1.332-15.565-2.898-31.55-4.301-47.104-1.331-15.995-2.888-32.133-4.301-48.435 0-0.953 0-1.915-0.369-3.328a53.658 53.658 0 0 1 11.264-1.332c10.138 0 20.44 0.226 30.577 0.594 2.519 0 3.932 1.925 3.932 4.301 0.215 5.253 0.584 10.138 0.584 15.401 0 23.767-0.369 47.903 0 71.608 0.379 19.252 0.973 37.99 1.331 57.242 0 0.963 0 2.365 0.379 4.444-10.957-0.082-21.852 0.297-32.143-0.082z m420.167-228.516h16.958c2.888 0 4.3 0.963 4.3 4.434v53.392c-6.82-0.369-13.854-0.584-21.196-0.963v-56.863h-0.062z m-115.814-6.369c1.915 0 2.878 1.178 3.328 3.482 1.772 17.92 3.328 35.39 5.253 53.903-6.81 0.82-13.25 0.963-20.439 1.557-2.519-19.62-4.884-38.728-7.403-58.573 6.594-0.369 13.035-0.369 19.25-0.369z m-27.627 3.103c2.734-0.369 1.925 1.925 2.365 3.481 0.594 6.595 1.331 12.81 1.925 19.252 0.963 10.148 2.376 19.855 3.338 30.003v3.922l-15.77 2.734c-3.48-18.883-6.82-37.54-10.3-56.801 6.143-0.666 12.216-2.069 18.431-2.591z m-3.113 183.726c-2.52 8.366-8.366 14.95-15.545 20.439-16.957 13.404-34.437 25.098-54.886 31.918a264.704 264.704 0 0 1-43.98 10.732c-19.477 2.887-39.323 4.3-59.168 6.226-4.075 0.593-7.987 0-12.288 0-1.925 0-2.519-0.963-2.519-2.888-0.225-8.745-0.962-17.92-1.556-27.034-0.963-11.694-2.15-23.173-3.482-34.806-1.925-16.363-3.922-32.133-5.847-48.435-1.925-17.1-4.3-34.058-6.226-51.015-1.925-16.733-3.481-33.25-5.837-49.838-2.744-18.883-5.263-37.54-8.15-56.792a509.921 509.921 0 0 0-13.036-66.355c-0.225-0.962 0.82-2.887 1.331-3.328a3055.2 3055.2 0 0 0 57.61-22.814c6.226-2.735 6.82-3.697 6.82 4.444 0 34.437 0 68.72 0.584 103.157 0.379 17.92 0.962 35.84 2.376 53.689 1.556 21.401 3.921 43.172 5.847 65.024 0 0.952 0.594 1.771 0.594 2.355 7.403-0.358 14.592-0.952 21.77-0.952 30.587-0.82 60.498 3.328 89.16 14.581 13.998 5.632 27.617 12.084 39.69 21.187 10.076 7.547 12.37 16.876 6.738 30.505z m26.07 44.728c-10.147-50.432-19.844-100.045-29.552-150.835 8.151-0.973 15.995-2.376 23.777-3.338 5.632-0.82 11.47-0.82 16.958-1.331 3.102-0.38 5.028 0.952 5.478 3.922 1.188 7.782 2.52 15.544 3.482 23.767 1.771 13.26 2.887 26.665 4.3 39.915 1.332 11.704 2.51 23.173 3.912 34.806 1.331 12.288 2.888 24.73 4.444 37.54 0.38 3.481 0.963 7.403 1.332 11.264-11.326 1.403-22.426 2.734-34.13 4.29z m83.088-14.592c-10.148-0.962-19.845-1.556-30.587-2.519-9.185-92.416-16.957-185.651-34.437-278.733 5.632-0.583 11.479-1.33 17.326-1.914 6.82-0.38 13.414-0.82 20.224-1.332 5.632-0.379 7.772 0.953 8.14 6.431l2.889 43.991c1.33 19.845 2.887 39.69 4.3 59.535 0.963 14.367 1.557 28.59 2.888 43.029 1.331 15.77 2.888 31.324 4.3 46.879 1.332 11.253 2.356 23.173 3.329 34.427 1.331 12.288 2.734 24.74 3.481 37.55l0.953 10.731c0.153 1.925-0.82 2.294-2.806 1.925z m26.88-210.75c2.519 0 3.482 0.595 3.482 3.482-0.38 7.783 0 15.995 0 23.767v29.553c-5.858 0.594-11.11 0.963-16.374 1.331-1.546-18.882-2.888-37.918-4.434-58.204h17.326v0.072z m2.96 228.67c-0.963 0-2.52-1.556-2.52-2.519-1.556-16.957-2.887-33.833-4.444-50.79-1.331-15.565-2.888-31.55-4.3-47.104-1.332-15.995-2.878-32.133-4.291-48.435 0-0.953 0-1.915-0.369-3.328a53.658 53.658 0 0 1 11.264-1.332c10.138 0 20.429 0.226 30.577 0.594 2.519 0 3.922 1.925 3.922 4.301 0.225 5.253 0.594 10.138 0.594 15.401 0 23.767-0.369 47.903 0 71.608 0.368 19.252 0.962 37.99 1.33 57.242 0 0.963 0 2.365 0.38 4.444-10.957-0.082-21.852 0.297-32.144-0.082z" fill="#1296DB" p-id="9933"></path></svg>