<?xml version="1.0" standalone="no"?><!DOCTYPE svg PUBLIC "-//W3C//DTD SVG 1.1//EN" "http://www.w3.org/Graphics/SVG/1.1/DTD/svg11.dtd"><svg t="1639928542981" class="icon" viewBox="0 0 1024 1024" version="1.1" xmlns="http://www.w3.org/2000/svg" p-id="2841" xmlns:xlink="http://www.w3.org/1999/xlink" width="48" height="48"><defs><style type="text/css"></style></defs><path d="M403.733513 436.70075m-403.733513 0a403.733513 403.733513 0 1 0 807.467026 0 403.733513 403.733513 0 1 0-807.467026 0Z" fill="#F16051" p-id="2842"></path><path d="M334.841633 976.61334h674.491117V290.908035L334.841633 976.61334z m539.914656-136.179077H658.469077L876.356841 619.341265v221.092998h-1.600552z" fill="#FFFFFF" p-id="2843"></path><path d="M1010.935367 991.032763h-676.093734c-6.408403 0-11.214189-3.205234-14.419423-9.613637-1.602617-4.805786-1.602617-11.214189 3.205234-16.02204L998.118561 279.693846c4.805786-4.805786 11.214189-4.805786 16.02204-3.205234 4.805786 1.602617 9.613637 8.01102 9.613637 14.419423v685.705305c1.600552 8.01102-4.807851 14.419423-12.818871 14.419423zM370.088881 960.593366h624.824446v-634.438083L370.088881 960.593366z m504.667408-104.139129H658.469077c-6.408403 0-11.214189-3.205234-14.419423-9.613637-1.602617-4.805786-1.602617-11.214189 3.205234-16.02204l217.887764-221.092997c4.805786-4.805786 11.214189-4.805786 16.02204-3.205234 4.805786 1.602617 9.613637 8.01102 9.613637 14.419422V842.034814c-0.002065 6.408403-6.410468 14.419423-16.02204 14.419423z m-181.039963-30.439397h168.223157v-169.82371l-168.223157 169.82371z" fill="#193651" p-id="2844"></path><path d="M477.431179 917.335097L951.657124 435.098133v482.236964H477.431179z" fill="#E1E6E9" p-id="2845"></path><path d="M874.756289 840.434263H658.469077L876.356841 619.341265v221.092998h-1.600552z" fill="#FFFFFF" p-id="2846"></path><path d="M874.756289 856.454237H658.469077c-6.408403 0-11.214189-3.205234-14.419423-9.613637-1.602617-4.805786-1.602617-11.214189 3.205234-16.02204l217.887764-221.092997c4.805786-4.805786 11.214189-4.805786 16.02204-3.205234 4.805786 1.602617 9.613637 8.01102 9.613637 14.419422V842.034814c-0.002065 6.408403-6.410468 14.419423-16.02204 14.419423z m-181.039963-30.439397h168.223157v-169.82371l-168.223157 169.82371z" fill="#193651" p-id="2847"></path><path d="M504.667408 153.12634h-264.349202c-27.236229 0-49.664606 22.430443-49.664606 49.664606V702.652568c0 27.236229 22.430443 49.664606 49.664606 49.664606H623.223894c27.236229 0 49.664606-22.430443 49.664606-49.664606V321.349498l-168.221092-168.223158z" fill="#FFFFFF" p-id="2848"></path><path d="M623.223894 766.736597H240.318206c-35.247249 0-64.084029-28.838846-64.084028-64.084029V202.790946c0-35.247249 28.838846-64.084029 64.084028-64.084029h264.349202c3.205234 0 8.01102 1.602617 11.214188 4.805786l168.223158 168.223158c3.205234 3.205234 4.805786 6.408403 4.805786 11.214188v381.303071c-1.602617 33.644632-30.441463 62.483477-65.686646 62.483477zM240.318206 167.545763c-19.225209 0-33.644632 16.02204-33.644631 33.644631v499.859557c0 19.225209 16.02204 33.644632 33.644631 33.644631H623.223894c19.225209 0 33.644632-16.02204 33.644631-33.644631V327.755835l-160.212137-160.212137H240.318206z" fill="#193651" p-id="2849"></path><path d="M503.06479 169.146315v112.148083c0 25.633612 20.827826 46.461437 46.461438 46.461437h110.545466l-157.006904-158.60952z" fill="#4FBF9F" p-id="2850"></path><path d="M344.45527 563.268256c-3.205234 0-8.01102-1.602617-11.214189-4.805786l-57.675626-57.675626c-6.408403-6.408403-6.408403-14.419423 0-20.827826 6.408403-6.408403 14.419423-6.408403 20.827826 0l43.256203 43.256203 51.267223-94.525491c3.205234-4.805786 8.01102-8.01102 12.816806-8.01102h174.63156a14.359531 14.359531 0 0 1 14.419423 14.419423 14.359531 14.359531 0 0 1-14.419423 14.419422h-165.017923l-56.075074 104.137064c-1.602617 4.805786-6.408403 6.408403-11.214189 8.01102l-1.602617 1.602617z" fill="#193651" p-id="2851"></path><path d="M496.656388 560.063022l-59.278244-59.278243c-6.408403-6.408403-6.408403-14.419423 0-20.827826s14.419423-6.408403 20.827826 0l59.278243 59.278243c6.408403 6.408403 6.408403 14.419423 0 20.827826-6.408403 6.408403-16.02204 6.408403-20.827825 0z" fill="#193651" p-id="2852"></path><path d="M437.378144 560.063022c-6.408403-6.408403-6.408403-14.419423 0-20.827826l59.278244-59.278243c6.408403-6.408403 14.419423-6.408403 20.827825 0 6.408403 6.408403 6.408403 14.419423 0 20.827826l-59.278243 59.278243c-6.408403 6.408403-14.419423 6.408403-20.827826 0zM432.572359 273.285443h-187.448367c-8.01102 0-14.419423-6.408403-14.419422-14.419423s6.408403-14.419423 14.419422-14.419422h187.448367c8.01102 0 14.419423 6.408403 14.419422 14.419422s-6.410468 14.419423-14.419422 14.419423zM362.077862 346.981044h-115.353318a14.359531 14.359531 0 0 1-14.419423-14.419423 14.359531 14.359531 0 0 1 14.419423-14.419423h115.353318a14.359531 14.359531 0 0 1 14.419422 14.419423 14.359531 14.359531 0 0 1-14.419422 14.419423z" fill="#193651" p-id="2853"></path><path d="M336.44425 646.577493h30.439397v30.439398h-30.439397zM416.550319 646.577493h30.439397v30.439398h-30.439397zM498.259005 646.577493H528.698402v30.439398h-30.439397z" fill="#193651" p-id="2854"></path></svg>