<?xml version="1.0" standalone="no"?><!DOCTYPE svg PUBLIC "-//W3C//DTD SVG 1.1//EN" "http://www.w3.org/Graphics/SVG/1.1/DTD/svg11.dtd"><svg t="1639926927444" class="icon" viewBox="0 0 1024 1024" version="1.1" xmlns="http://www.w3.org/2000/svg" p-id="772" xmlns:xlink="http://www.w3.org/1999/xlink" width="48" height="48"><defs><style type="text/css"></style></defs><path d="M955.424 256c-7.136-12.384-16.992-23.168-27.808-29.44L551.456 9.376c-21.664-12.512-57.12-12.512-78.816 0L96.416 226.56c-21.664 12.512-39.392 43.232-39.392 68.256v434.336c0 12.544 4.448 26.464 11.552 38.816s16.992 23.168 27.808 29.408l376.16 217.216c21.664 12.512 57.12 12.512 78.816 0l376.16-217.216c10.848-6.24 20.704-17.024 27.808-29.408s11.552-26.272 11.552-38.816V294.816c0.096-12.544-4.352-26.464-11.488-38.816zM512 815.328c-167.264 0-303.328-136.064-303.328-303.328S344.736 208.672 512 208.672a304.32 304.32 0 0 1 261.888 150.112l0.768 1.408-131.232 76a152.32 152.32 0 0 0-131.392-75.904c-83.616 0-151.648 68.064-151.648 151.68s68 151.68 151.648 151.68a152.32 152.32 0 0 0 131.04-75.136l0.384-0.704 131.296 75.936c-53.6 91.104-151.104 151.328-262.656 151.552h-0.032z m303.328-286.464h-33.696v33.696h-33.696v-33.696H714.24v-33.696h33.696v-33.696h33.696v33.696h33.696z m126.368 0h-33.696v33.696h-33.696v-33.696H840.64v-33.696h33.664v-33.696h33.696v33.696h33.696z" fill="#00599C" p-id="773"></path></svg>