<?xml version="1.0" standalone="no"?><!DOCTYPE svg PUBLIC "-//W3C//DTD SVG 1.1//EN" "http://www.w3.org/Graphics/SVG/1.1/DTD/svg11.dtd"><svg t="1639927788157" class="icon" viewBox="0 0 1024 1024" version="1.1" xmlns="http://www.w3.org/2000/svg" p-id="2400" xmlns:xlink="http://www.w3.org/1999/xlink" width="48" height="48"><defs><style type="text/css"></style></defs><path d="M668.41 428.3c0-25.128-29.21-39.148-48.81-23.372C561.854 451.412 560.198 482 512.01 482c-48.21 0-49.332-30.178-107.588-77.072-19.576-15.754-48.81-1.794-48.81 23.372 0 99.114-70.58 118.244-70.58 233.04a30 30 0 0 0 12.54 24.396c1.072 0.768 4.338 3.104 4.754 11.862 6.464 134.668 70.004 191.822 19.452 244.034-14.244 14.714-9.866 39.11 8.626 47.942C376.234 1011.452 442.428 1024 512.01 1024c69.63 0 135.826-12.55 181.614-34.432 18.468-8.824 22.87-33.216 8.618-47.936-50.528-52.188 12.99-109.436 19.454-244.048 0.414-8.744 3.68-11.08 4.752-11.848a29.996 29.996 0 0 0 12.54-24.396c0-114.612-70.578-134.114-70.578-233.04z" fill="#F7F7F7" p-id="2401"></path><path d="M668.41 428.3c0-25.128-29.21-39.148-48.81-23.372-57.742 46.48-59.402 77.068-107.582 77.072v542c69.628 0 135.822-12.55 181.608-34.432 18.468-8.824 22.87-33.216 8.616-47.936-50.528-52.188 12.99-109.436 19.454-244.048 0.414-8.744 3.68-11.08 4.752-11.848a30 30 0 0 0 12.542-24.396c-0.002-114.612-70.58-134.114-70.58-233.04z" fill="#E0E0E0" p-id="2402"></path><path d="M804.416 259.12C796.826 94.298 675.59 0 512.01 0c-163.604 0-284.816 94.32-292.406 259.124-9.192 199.994-147.624 290.07-61.972 479.744 12.718 28.158 96.86 44.736 89.952-24.558-2.626-26.398 36.94-37.952 49.934-28.612 19.802 14.246 47.514 0.054 47.514-24.356 0-94.062 70.58-114.194 70.58-233.04 0-9.054-4.09-17.626-11.128-23.322-9.762-7.9-21.576-16.764-35.13-26.36a629.64 629.64 0 0 1 27.924-6.242c23.458-4.692 32.224-33.696 15.354-50.604-11.582-11.61-18.496-31.278-18.496-52.612 0-28.852 15.378-61.12 35.958-61.12s35.958 32.268 35.958 61.12c0 13.762-2.846 26.794-8.122 37.598-25.368 16.912-12.054 56.936 18.592 54.916 23.322-1.536 46.014-1.644 70.98 0 30.642 2.006 43.96-38.004 18.592-54.916-5.276-10.804-8.12-23.836-8.12-37.598 0-28.852 15.378-61.12 35.958-61.12s35.958 32.268 35.958 61.12c0 21.334-6.914 41.002-18.496 52.612-16.896 16.934-8.068 45.918 15.354 50.604 9.482 1.898 18.87 3.996 27.924 6.242-13.544 9.588-25.364 18.458-35.13 26.36a29.996 29.996 0 0 0-11.128 23.322c0 119.346 70.58 138.554 70.58 233.04 0 24.39 27.696 38.61 47.514 24.356 13.016-9.356 52.558 2.222 49.934 28.612-6.918 69.412 77.332 52.5 89.952 24.558 85.676-189.74-52.784-279.664-61.978-479.748z" fill="#294A4A" p-id="2403"></path><path d="M804.416 259.12C796.826 94.3 675.592 0.002 512.016 0v360.488c11.51 0 23.22 0.38 35.484 1.188 30.642 2.006 43.96-38.004 18.592-54.916-5.276-10.804-8.122-23.836-8.122-37.598 0-28.852 15.378-61.12 35.958-61.12s35.958 32.268 35.958 61.12c0 21.334-6.914 41.002-18.496 52.612-16.896 16.934-8.068 45.918 15.354 50.604 9.482 1.898 18.87 3.996 27.924 6.242-13.544 9.588-25.364 18.458-35.13 26.36a29.996 29.996 0 0 0-11.128 23.322c0 119.346 70.58 138.554 70.58 233.04 0 24.39 27.696 38.61 47.514 24.356 13.016-9.356 52.558 2.222 49.934 28.612-6.918 69.412 77.332 52.5 89.952 24.558 85.68-189.74-52.78-279.664-61.974-479.748z" fill="#1C2323" p-id="2404"></path><path d="M593.93 148.04c-35.084 0-65.2 22.626-81.92 57.192-16.72-34.566-46.836-57.192-81.92-57.192-52.232 0-95.958 52.21-95.958 121.12 0 37.42 13.128 72.042 36.02 94.988a30.004 30.004 0 0 0 27.106 8.234c27.784-5.488 50.926-8.836 82.9-10.946a30.006 30.006 0 0 0 22.844-13.07 122.756 122.756 0 0 0 9.01-15.724 122.756 122.756 0 0 0 9.01 15.724 30.002 30.002 0 0 0 22.844 13.07c32.166 2.122 54.712 5.462 82.9 10.946a30.002 30.002 0 0 0 27.106-8.234c22.89-22.946 36.02-57.568 36.02-94.988-0.004-69.426-44.104-121.12-95.962-121.12z" fill="#F7F7F7" p-id="2405"></path><path d="M593.93 148.04c-35.08 0-65.192 22.622-81.914 57.18v127.434a122.414 122.414 0 0 0 9.004 15.71 30.006 30.006 0 0 0 22.844 13.07c32.166 2.122 54.712 5.462 82.9 10.946a30.002 30.002 0 0 0 27.106-8.234c22.89-22.946 36.02-57.568 36.02-94.988-0.002-69.424-44.102-121.118-95.96-121.118z" fill="#E0E0E0" p-id="2406"></path><path d="M362.258 694.736c-3.174-66.768-73.79-90.198-129.404-58.108-23.85 13.76-39.276 34.974-43.924 59.256-25.192-9.486-68.566-22.124-103.108 12.422-34.392 34.394-22.43 76.514-12.442 103.098-59.162 11.236-89.112 84.604-65.034 133.408 11.836 23.992 35.122 38.548 63.884 39.932 88.606 4.272 144.886 39.216 202.666 39.216 31.856 0 61.856-11.226 89.99-40.594 80.878-83.53 3.552-159.796-2.628-288.63z" fill="#FFD664" p-id="2407"></path><path d="M950.64 811.404c9.988-26.584 21.95-68.704-12.442-103.098-34.54-34.542-77.918-21.908-103.108-12.422-4.646-24.284-20.074-45.496-43.924-59.256-55.694-32.132-126.236-8.596-129.404 58.094-6.24 130.006-84.626 205.632-0.632 290.668 29.064 29.074 58.264 38.57 88.004 38.57 57.784 0 114.046-34.942 202.656-39.214h-0.002c28.764-1.384 52.05-15.94 63.886-39.932 23.952-48.548-5.624-122.13-65.034-133.41z" fill="#FF9842" p-id="2408"></path><path d="M669.196 320.404c-104.75-26.004-206.038-26.892-314.356-0.004-49.83 12.336-62.042 77.584-20.162 107.186 39.416 27.896 50.422 39.44 69.238 59.55C429.154 514.11 455.252 542 512.01 542s82.856-27.89 108.094-54.864c18.354-19.618 29.456-31.394 69.238-59.55 41.882-29.626 29.66-94.852-20.146-107.182z" fill="#FFD664" p-id="2409"></path><path d="M669.196 320.404c-52.824-13.114-104.77-19.83-157.18-19.828V542c56.754-0.002 82.852-27.892 108.088-54.864 18.354-19.618 29.456-31.394 69.238-59.55 41.882-29.626 29.66-94.852-20.146-107.182z" fill="#FF9842" p-id="2410"></path><path d="M598.32 245.62m-31.49 0a31.49 31.49 0 1 0 62.98 0 31.49 31.49 0 1 0-62.98 0Z" fill="#1C2323" p-id="2411"></path><path d="M425.68 245.62m-31.49 0a31.49 31.49 0 1 0 62.98 0 31.49 31.49 0 1 0-62.98 0Z" fill="#294A4A" p-id="2412"></path></svg>