<?xml version="1.0" standalone="no"?><!DOCTYPE svg PUBLIC "-//W3C//DTD SVG 1.1//EN" "http://www.w3.org/Graphics/SVG/1.1/DTD/svg11.dtd"><svg t="1639926932418" class="icon" viewBox="0 0 1024 1024" version="1.1" xmlns="http://www.w3.org/2000/svg" p-id="921" xmlns:xlink="http://www.w3.org/1999/xlink" width="48" height="48"><defs><style type="text/css"></style></defs><path d="M624.213333 47.36c-38.826667-6.4-78.506667-9.386667-117.76-9.386667-36.266667 0-72.106667 3.413333-107.946666 9.386667C302.506667 64 285.44 99.413333 285.44 164.693333v86.186667h226.133333v28.586667H200.533333c-65.706667 0-123.306667 39.68-141.226666 114.773333-20.906667 86.186667-21.76 139.946667 0 229.973333 15.786667 66.986667 54.186667 114.773333 119.893333 114.773334h78.08V635.733333c0-74.666667 64.426667-140.373333 141.226667-140.373333h225.706666c62.72-0.426667 113.493333-52.053333 113.066667-114.773333V164.693333c0-61.013333-51.626667-107.093333-113.066667-117.333333zM396.8 193.28c-23.893333 0.426667-43.52-18.346667-43.946667-42.24s18.346667-43.52 42.24-43.946667c23.893333-0.426667 43.52 18.346667 43.946667 42.24v0.853334c0.426667 23.466667-18.773333 42.666667-42.24 43.093333z" fill="#3573A6" p-id="922"></path><path d="M963.413333 394.24c-16.213333-65.28-47.36-114.773333-113.066666-114.773333h-84.906667v100.693333c0 77.653333-66.133333 143.36-141.226667 143.36H398.506667c-61.866667 0-113.066667 52.906667-113.066667 114.773333v215.466667c0 61.44 53.333333 97.28 113.066667 114.773333 71.68 20.906667 140.373333 24.746667 225.706666 0 56.746667-16.64 113.066667-49.493333 113.066667-114.773333v-86.186667h-225.706667v-28.586666h338.773334c65.706667 0 90.026667-45.653333 113.066666-114.773334s22.613333-139.093333 0-229.973333z m-328.106666 418.133333c23.893333-0.426667 43.52 18.346667 43.946666 42.24 0.426667 23.893333-18.346667 43.52-42.24 43.946667s-43.52-18.346667-43.946666-42.24v-0.853333c0-23.466667 18.773333-42.666667 42.24-43.093334z" fill="#FEB72B" p-id="923"></path></svg>