<?xml version="1.0" standalone="no"?><!DOCTYPE svg PUBLIC "-//W3C//DTD SVG 1.1//EN" "http://www.w3.org/Graphics/SVG/1.1/DTD/svg11.dtd"><svg t="1640339513484" class="icon" viewBox="0 0 1024 1024" version="1.1" xmlns="http://www.w3.org/2000/svg" p-id="5650" xmlns:xlink="http://www.w3.org/1999/xlink" width="48" height="48"><defs><style type="text/css"></style></defs><path d="M511.5 535.8L316.1 425.6l-0.5-226.9L512.1 87.6l196.7 111.1v226.9z" fill="#FFFFFF" p-id="5651"></path><path d="M511.5 551.8c-2.7 0-5.4-0.7-7.9-2.1L308.2 439.6c-5-2.8-8.1-8.1-8.1-13.9l-0.5-227c0-5.8 3.1-11.1 8.1-14l196.5-111c4.9-2.8 10.9-2.8 15.7 0l196.7 111c5 2.8 8.1 8.2 8.1 13.9v227c0 5.8-3.1 11.1-8.2 14L519.3 549.7c-2.4 1.4-5.1 2.1-7.8 2.1zM332.1 416.3l179.5 101.1 181.3-101.2V208L512.1 106 331.6 208l0.5 208.3z" fill="#00365B" p-id="5652"></path><path d="M512.7 481.2l152.5-84.1V228.8l-152.4 83.9z" fill="#91A7B8" p-id="5653"></path><path d="M275.9 936.3L80.5 826.2l-0.5-227 196.5-111 196.7 111v227z" fill="#FFFFFF" p-id="5654"></path><path d="M275.9 952.3c-2.7 0-5.4-0.7-7.9-2.1l-195.4-110c-5-2.8-8.1-8.1-8.1-13.9l-0.5-227c0-5.8 3.1-11.1 8.1-14l196.5-111c4.9-2.8 10.9-2.8 15.7 0l196.7 111c5 2.8 8.1 8.2 8.1 13.9v227c0 5.8-3.1 11.1-8.2 14L283.7 950.3c-2.4 1.4-5.1 2-7.8 2zM96.5 816.9L276 918l181.3-101.2V608.6l-180.7-102L96 608.6l0.5 208.3z" fill="#00365B" p-id="5655"></path><path d="M277.1 881.7l152.5-84V629.3l-152.4 84z" fill="#91A7B8" p-id="5656"></path><path d="M746.5 936.3L551 826.2l-0.5-227 196.5-111 196.7 111v227z" fill="#FFFFFF" p-id="5657"></path><path d="M746.5 952.3c-2.7 0-5.4-0.7-7.9-2.1l-195.4-110c-5-2.8-8.1-8.1-8.1-13.9l-0.5-227c0-5.8 3.1-11.1 8.1-14l196.5-111c4.9-2.8 10.9-2.8 15.7 0l196.7 111c5 2.8 8.1 8.2 8.1 13.9v227c0 5.8-3.1 11.1-8.2 14L754.3 950.3c-2.5 1.4-5.2 2-7.8 2zM567 816.9L746.5 918l181.3-101.2V608.6l-180.7-102-180.5 102 0.4 208.3z" fill="#00365B" p-id="5658"></path><path d="M747.6 881.7l152.5-84V629.3l-152.4 84z" fill="#91A7B8" p-id="5659"></path></svg>