<?xml version="1.0" standalone="no"?><!DOCTYPE svg PUBLIC "-//W3C//DTD SVG 1.1//EN" "http://www.w3.org/Graphics/SVG/1.1/DTD/svg11.dtd"><svg t="1632479443079" class="icon" viewBox="0 0 1024 1024" version="1.1" xmlns="http://www.w3.org/2000/svg" p-id="4215" xmlns:xlink="http://www.w3.org/1999/xlink" width="48" height="48"><defs><style type="text/css"></style></defs><path d="M371.2 940.032v-112.128a102.4 102.4 0 0 1 33.28-78.848C282.624 727.04 231.424 652.288 231.424 563.2a171.008 171.008 0 0 1 41.984-114.176 153.6 153.6 0 0 1 4.608-102.4 179.2 179.2 0 0 1 107.008 39.424 379.392 379.392 0 0 1 97.792-11.776 387.584 387.584 0 0 1 98.816 11.776 177.152 177.152 0 0 1 105.472-37.888 153.6 153.6 0 0 1 4.608 102.4 172.544 172.544 0 0 1 42.496 112.64c0 88.576-51.2 163.328-173.568 184.832a111.104 111.104 0 0 1 32.768 78.848v113.152a340.992 340.992 0 0 1-222.208 0z" fill="#FFC300" opacity=".6" p-id="4216"></path><path d="M819.2 518.144a217.088 217.088 0 0 0-46.08-134.144 194.048 194.048 0 0 0-9.728-117.248 24.064 24.064 0 0 0-21.504-16.384 204.8 204.8 0 0 0-124.928 39.936 495.616 495.616 0 0 0-207.36 0 208.384 208.384 0 0 0-126.976-41.984 27.648 27.648 0 0 0-22.016 17.408 198.144 198.144 0 0 0-9.216 118.784A219.136 219.136 0 0 0 204.8 518.144a221.696 221.696 0 0 0 174.592 222.208 143.36 143.36 0 0 0-17.92 67.072 88.064 88.064 0 0 1-80.896-35.328 168.96 168.96 0 0 0-68.096-72.192 25.6 25.6 0 1 0-22.528 46.08 114.688 114.688 0 0 1 45.056 48.64 132.608 132.608 0 0 0 118.784 64.512h6.656v79.36h51.2V814.08a92.16 92.16 0 0 1 29.184-70.144 25.088 25.088 0 0 0 8.192-27.136 24.064 24.064 0 0 0-19.968-17.408C287.232 673.792 256 586.752 256 518.144A166.4 166.4 0 0 1 297.984 409.6a26.112 26.112 0 0 0 4.608-25.088 136.704 136.704 0 0 1 0-82.432 196.096 196.096 0 0 1 84.992 38.4 25.6 25.6 0 0 0 22.016 2.048 432.64 432.64 0 0 1 204.8 0 24.576 24.576 0 0 0 22.016-4.608 199.168 199.168 0 0 1 83.968-36.864 136.704 136.704 0 0 1 0 80.896 26.624 26.624 0 0 0 5.12 24.576 164.352 164.352 0 0 1 42.496 111.616c0 97.28-61.44 161.792-173.056 181.248a26.624 26.624 0 0 0-19.968 17.408 27.136 27.136 0 0 0 6.656 26.112 102.4 102.4 0 0 1 29.184 70.144v125.952a25.6 25.6 0 0 0 51.2 0v-125.952a153.6 153.6 0 0 0-18.432-72.192A221.696 221.696 0 0 0 819.2 518.144z" fill="#333333" p-id="4217"></path><path d="M512 25.6a485.888 485.888 0 0 0-295.936 870.4 25.6 25.6 0 1 0 31.232-40.448A435.2 435.2 0 1 1 947.2 512a436.224 436.224 0 0 1-219.648 377.856 25.6 25.6 0 0 0 12.8 47.616 24.064 24.064 0 0 0 12.8-3.584A485.888 485.888 0 0 0 512 25.6z" fill="#333333" p-id="4218"></path></svg>