<?xml version="1.0" standalone="no"?><!DOCTYPE svg PUBLIC "-//W3C//DTD SVG 1.1//EN" "http://www.w3.org/Graphics/SVG/1.1/DTD/svg11.dtd"><svg t="1632480401248" class="icon" viewBox="0 0 1024 1024" version="1.1" xmlns="http://www.w3.org/2000/svg" p-id="18511" xmlns:xlink="http://www.w3.org/1999/xlink" width="48" height="48"><defs><style type="text/css"></style></defs><path d="M512 512m-512 0a512 512 0 1 0 1024 0 512 512 0 1 0-1024 0Z" fill="#FFF0BD" p-id="18512"></path><path d="M176 649.6c0 96 115.2 172.8 256 172.8s256-76.8 256-172.8c0-96-115.2-172.8-256-172.8-140.8 3.2-256 80-256 172.8z" fill="#F9F9F9" p-id="18513"></path><path d="M803.2 585.6c-16-38.4-48-70.4-89.6-80-12.8 0-25.6-9.6-16-22.4 19.2-28.8 16-64-6.4-89.6-32-32-99.2-19.2-147.2 0-48 19.2-44.8 6.4-44.8-6.4s28.8-96-51.2-105.6c-102.4-12.8-236.8 115.2-284.8 192-73.6 112-64 188.8-64 188.8 9.6 105.6 163.2 188.8 352 188.8 163.2 0 300.8-60.8 339.2-147.2l9.6-28.8c9.6-28.8 9.6-60.8 3.2-89.6z m-374.4 217.6c-134.4 0-243.2-73.6-243.2-160s108.8-160 243.2-160 243.2 73.6 243.2 160-108.8 160-243.2 160z" fill="#E71F19" p-id="18514"></path><path d="M761.6 444.8h6.4c9.6 0 16-3.2 19.2-12.8 6.4-12.8 6.4-25.6 6.4-38.4 0-54.4-44.8-96-96-96-12.8 0-25.6 3.2-38.4 6.4-9.6 3.2-16 16-9.6 25.6s16 16 25.6 9.6c6.4-3.2 16-3.2 22.4-3.2 32 0 57.6 25.6 57.6 57.6 0 6.4 0 16-3.2 22.4-6.4 12.8 0 22.4 9.6 28.8z" fill="#F5AA15" p-id="18515"></path><path d="M697.6 176c-22.4 0-44.8 3.2-64 9.6-19.2 6.4-25.6 22.4-22.4 38.4 3.2 16 22.4 25.6 38.4 19.2 16-3.2 32-6.4 48-6.4 92.8 0 169.6 76.8 169.6 169.6 0 16-3.2 32-6.4 48-6.4 16 3.2 32 19.2 38.4h9.6c12.8 0 25.6-9.6 28.8-22.4 6.4-22.4 9.6-44.8 9.6-67.2-3.2-124.8-105.6-227.2-230.4-227.2z" fill="#F5AA15" p-id="18516"></path><path d="M406.4 537.6c-70.4 0-128 51.2-128 115.2s57.6 115.2 128 115.2 128-51.2 128-115.2-54.4-115.2-128-115.2z m-41.6 188.8c-25.6 0-44.8-19.2-44.8-44.8 0-25.6 19.2-44.8 44.8-44.8 25.6 0 44.8 19.2 44.8 44.8 0 22.4-19.2 44.8-44.8 44.8z m86.4-83.2c-3.2 9.6-12.8 12.8-22.4 9.6-9.6-3.2-12.8-12.8-9.6-22.4 0-3.2 0-3.2 3.2-3.2 3.2-9.6 16-12.8 25.6-9.6 6.4 6.4 6.4 16 3.2 25.6z" fill="#040000" p-id="18517"></path></svg>