<?xml version="1.0" standalone="no"?><!DOCTYPE svg PUBLIC "-//W3C//DTD SVG 1.1//EN" "http://www.w3.org/Graphics/SVG/1.1/DTD/svg11.dtd"><svg t="1639499447662" class="icon" viewBox="0 0 1026 1024" version="1.1" xmlns="http://www.w3.org/2000/svg" p-id="54800" xmlns:xlink="http://www.w3.org/1999/xlink" width="24.046875" height="24"><defs><style type="text/css"></style></defs><path d="M304.64 412.16c0 168.96 138.24 307.2 307.2 307.2s307.2-138.24 307.2-307.2-138.24-307.2-307.2-307.2-307.2 138.24-307.2 307.2z m0 0" fill="#FFD100" p-id="54801"></path><path d="M448 762.88c-194.56 0-350.72-158.72-350.72-350.72C97.28 217.6 256 61.44 448 61.44c194.56 0 350.72 158.72 350.72 350.72 0 194.56-156.16 350.72-350.72 350.72z m0-611.84c-143.36 0-261.12 117.76-261.12 261.12s117.76 261.12 261.12 261.12 261.12-117.76 261.12-261.12S591.36 151.04 448 151.04z m529.92 811.52H46.08c-25.6 0-46.08-20.48-46.08-46.08S20.48 870.4 46.08 870.4h934.4c25.6 0 46.08 20.48 46.08 46.08-2.56 25.6-23.04 46.08-48.64 46.08z m0 0" fill="#202020" p-id="54802"></path></svg>