<?xml version="1.0" standalone="no"?><!DOCTYPE svg PUBLIC "-//W3C//DTD SVG 1.1//EN" "http://www.w3.org/Graphics/SVG/1.1/DTD/svg11.dtd"><svg t="1639497044550" class="icon" viewBox="0 0 1024 1024" version="1.1" xmlns="http://www.w3.org/2000/svg" p-id="4933" width="24" height="24" xmlns:xlink="http://www.w3.org/1999/xlink"><defs><style type="text/css"></style></defs><path d="M512.675 1l442.972 255.75v511.5L512.675 1024 69.703 768.25v-511.5z" fill="#000000" p-id="4934"></path><path d="M511.9 528.015l385.202 222.492L511.901 973 126.7 750.507zM909.456 282.25v444.985L524.254 504.743V59.758zM113.776 282.25l385.2-222.492v444.985l-385.2 222.492z" fill="#FFFFFF" p-id="4935"></path><path d="M512.675 40L923.62 277 512.675 514 101.73 277z" fill="#FDC818" p-id="4936"></path><path d="M513.447 514.702v474l-410.496-237v-474z" fill="#3A70A3" p-id="4937"></path><path d="M512.84 513.702l410.496-237v474l-410.496 237z" fill="#CF4D6A" p-id="4938"></path><path d="M97.154 253.412l170.607 98.5-18 31.176-170.607-98.5zM531.07 807.283v184h-36v-184zM926.846 253.411l-173.205 100 18 31.177 173.205-100z" fill="#000000" p-id="4939"></path><path d="M512.427 210l264.426 152.5L512.427 515 248 362.5z" fill="#000000" p-id="4940"></path><path d="M512.427 233l244.486 141-244.486 141L267.94 374z" fill="#FFFFFF" p-id="4941"></path><path d="M513.447 514.702v305l-264.138-152.5v-305z" fill="#000000" p-id="4942"></path><path d="M513.447 514.702v282l-244.219-141v-282z" fill="#FFFFFF" p-id="4943"></path><path d="M512.069 514.25l264.138-152.5v305l-264.138 152.5z" fill="#000000" p-id="4944"></path><path d="M512.069 514.25l244.219-141v282l-244.22 141z" fill="#FFFFFF" p-id="4945"></path><path d="M268.684 352.411l244.22 141-18 31.177-244.22-141z" fill="#000000" p-id="4946"></path><path d="M531.07 493.283v313h-36v-313z" fill="#000000" p-id="4947"></path><path d="M756.636 352.411l-244.22 141 18 31.177 244.22-141z" fill="#000000" p-id="4948"></path></svg>