<?xml version="1.0" standalone="no"?><!DOCTYPE svg PUBLIC "-//W3C//DTD SVG 1.1//EN" "http://www.w3.org/Graphics/SVG/1.1/DTD/svg11.dtd"><svg t="1639497942147" class="icon" viewBox="0 0 1024 1024" version="1.1" xmlns="http://www.w3.org/2000/svg" p-id="12419" xmlns:xlink="http://www.w3.org/1999/xlink" width="24" height="24"><defs><style type="text/css"></style></defs><path d="M791.686 256.008H237.032c-11.78 0-21.342-9.562-21.342-21.328 0-11.764 9.562-21.328 21.342-21.328H471.68c35.344 0 63.998-28.656 63.998-63.998V21.344c0-11.782-9.56-21.328-21.342-21.328s-21.312 9.546-21.312 21.328v128.012c0 11.75-9.594 21.326-21.344 21.326H237.032c-35.374 0-63.998 28.656-63.998 63.998 0 35.344 28.624 63.998 63.998 63.998h554.654c11.75 0 21.31 9.562 21.31 21.328s-9.56 21.342-21.31 21.342h-234.68c-35.326 0-63.982 28.64-63.982 63.998V500h42.654v-94.654c0-11.766 9.578-21.342 21.328-21.342h234.68c35.31 0 63.998-28.656 63.998-63.998s-28.688-63.998-63.998-63.998z" fill="#434A54" p-id="12420"></path><path d="M546.318 469.33h-63.982c-11.782 0-21.31 9.546-21.31 21.344v149.324a21.296 21.296 0 0 0 21.31 21.312h63.982c11.812 0 21.374-9.532 21.374-21.312v-149.324c0-11.798-9.562-21.344-21.374-21.344z" fill="#656D78" p-id="12421"></path><path d="M959.992 959.984c0 23.562-19.124 42.688-42.686 42.688H106.692c-23.56 0-42.686-19.124-42.686-42.688v-341.3c0-23.562 19.124-42.688 42.686-42.688h810.616c23.56 0 42.686 19.124 42.686 42.688v341.3z" fill="#E6E9ED" p-id="12422"></path><path d="M917.306 1023.984H106.692c-35.28 0-63.996-28.718-63.996-64v-341.3c0-35.312 28.716-63.996 63.996-63.996h810.616c35.31 0 63.998 28.684 63.998 63.996v341.3c-0.002 35.282-28.688 64-64 64zM106.692 597.308c-11.78 0-21.342 9.594-21.342 21.376v341.3c0 11.75 9.562 21.312 21.342 21.312h810.616c11.81 0 21.374-9.562 21.374-21.312v-341.3c0-11.782-9.562-21.376-21.374-21.376H106.692z" fill="#CCD1D9" p-id="12423"></path><path d="M727.688 703.992c0 23.562-19.124 42.688-42.688 42.688-23.56 0-42.684-19.124-42.684-42.688 0-23.558 19.124-42.684 42.684-42.684 23.562 0 42.688 19.126 42.688 42.684zM876.996 703.992c0 23.562-19.124 42.688-42.688 42.688s-42.624-19.124-42.624-42.688c0-23.558 19.06-42.684 42.624-42.684s42.688 19.126 42.688 42.684z" fill="#ED5564" p-id="12424"></path><path d="M727.688 853.3c0 23.562-19.124 42.688-42.688 42.688-23.56 0-42.684-19.124-42.684-42.688s19.124-42.624 42.684-42.624c23.562 0 42.688 19.062 42.688 42.624zM876.996 853.3c0 23.562-19.124 42.688-42.688 42.688s-42.624-19.124-42.624-42.688 19.06-42.624 42.624-42.624 42.688 19.062 42.688 42.624z" fill="#434A54" p-id="12425"></path><path d="M557.006 938.672H471.68c-11.78 0-21.342-9.558-21.342-21.372 0-11.75 9.562-21.312 21.342-21.312h85.326c11.81 0 21.31 9.562 21.31 21.312 0 11.814-9.5 21.372-21.31 21.372z" fill="#CCD1D9" p-id="12426"></path><path d="M279.688 682.684c-23.562 0-42.656 19.058-42.656 42.622v127.996c0 23.562 19.094 42.688 42.656 42.688 23.56 0 42.654-19.124 42.654-42.688v-127.996c0-23.564-19.094-42.622-42.654-42.622z" fill="#434A54" p-id="12427"></path><path d="M386.34 789.304c0-23.562-19.094-42.624-42.654-42.624h-127.996c-23.562 0-42.656 19.062-42.656 42.624 0 23.558 19.094 42.684 42.656 42.684h127.996c23.56 0 42.654-19.094 42.654-42.684z" fill="#656D78" p-id="12428"></path></svg>