<?xml version="1.0" standalone="no"?><!DOCTYPE svg PUBLIC "-//W3C//DTD SVG 1.1//EN" "http://www.w3.org/Graphics/SVG/1.1/DTD/svg11.dtd"><svg t="1639499977365" class="icon" viewBox="0 0 1024 1024" version="1.1" xmlns="http://www.w3.org/2000/svg" p-id="6981" xmlns:xlink="http://www.w3.org/1999/xlink" width="24" height="24"><defs><style type="text/css"></style></defs><path d="M365.8 278.8c-0.1 83.7 35.6 163.5 98.1 219.2 21.2 6.3 43.2 9.6 65.4 9.5C655.4 507.6 758 405 758 278.9S655.4 50.1 529.3 50.1c-22.2 0-44.2 3.2-65.4 9.5-62.5 55.7-98.2 135.5-98.1 219.2z" fill="#EBDACC" p-id="6982"></path><path d="M512 553.6c-151.5 0-274.8-123.3-274.8-274.8C237.2 128.2 359 5.4 509.3 4h2.6c151.5 0 274.8 123.3 274.8 274.8 0.1 151.5-123.2 274.8-274.7 274.8z m0-497.8c-122.9 0-223 100-223 223 0 122.9 100 222.9 223 222.9 122.9 0 223-100 223-222.9-0.1-123-100.1-223-223-223z" fill="#E48218" p-id="6983"></path><path d="M931.1 868.8c-4.8-16.3-10.4-32.3-17-47.9-3.6-8.5-7.5-17-11.6-25.3-30-60.2-73-112.6-125.7-152.9-73.2-56.1-162-86.3-253.2-86.1-16.2 0-32.4 0.9-48.5 2.8-166.5 70.2-283.8 238.8-283.8 435.7H949c0-42.8-6-85.3-17.9-126.3z" fill="#EBDACC" p-id="6984"></path><path d="M968.5 1020c-14.3 0-25.9-11.6-25.9-25.9 0.1-59.2-11.8-116.7-35.3-171.1-3.6-8.4-7.6-16.7-11.7-24.9-30.2-58.8-74.2-110.7-127.3-150.1-74.8-55.3-163.5-84.5-256.5-84.5-53.7 0-106.3 9.9-156.4 29.4-3.4 1.4-6.8 2.1-10.3 2.1-10.4 0-19.8-6.2-23.9-15.8-5.6-13.2 0.6-28.4 13.7-34 0.5-0.2 1-0.4 1.4-0.6 56.3-21.9 115.2-33 175.4-33 104.2 0 203.6 32.8 287.4 94.7 59.5 44.1 108.8 102.2 142.6 168.1 4.7 9.1 9.1 18.5 13.2 27.9 26.4 60.8 39.7 125.3 39.6 191.7 0 14.4-11.7 26-26 26zM55.5 1020c-14.3 0-25.9-11.6-25.9-25.9 0-117 42.4-229.8 119.5-317.8 5-5.9 12.2-9.2 19.8-9.2 6.1 0 12.1 2.2 16.8 6.2 10.9 9.3 12.2 25.7 2.9 36.6l-0.5 0.6A430.096 430.096 0 0 0 81.4 994.1c0 14.3-11.6 25.9-25.9 25.9zM238.1 654.8c-14.3 0-25.9-11.6-25.9-25.9 0-8.1 3.9-15.9 10.4-20.7 11.3-8.5 23-16.5 35-24 4.1-2.6 8.8-3.9 13.7-3.9 9 0 17.3 4.6 22.1 12.2 3.7 5.9 4.8 12.8 3.2 19.6-1.6 6.7-5.7 12.5-11.6 16.1-11 6.9-21.6 14.1-31.3 21.4-4.5 3.4-10 5.2-15.6 5.2z" fill="#E48218" p-id="6985"></path></svg>